<svg width="14" height="14" viewBox="0 0 14 14" fill="none" xmlns="http://www.w3.org/2000/svg">
<path d="M7 0C8.93293 0 10.6832 0.771199 11.9498 2.0176C13.2163 3.26428 14 4.98642 14 6.88859C14 8.79075 13.2163 10.5132 11.9498 11.7596C10.6832 13.006 8.93293 13.7772 7 13.7772C5.06707 13.7772 3.3168 13.006 2.05023 11.7596C0.783672 10.5132 0 8.79075 0 6.88859C0 4.98642 0.783672 3.26428 2.05023 2.0176C3.3168 0.771199 5.06707 0 7 0ZM7.48535 9.20945H8.28242V9.99841H5.71785V9.20945H6.50426V6.72471H5.71785V5.93576H7.48535V9.20945ZM6.72137 5.16321C6.52777 5.16187 6.36262 5.09513 6.22371 4.95978C6.0848 4.82497 6.01699 4.66083 6.01699 4.4687C6.01699 4.28007 6.0848 4.11728 6.22371 3.9822C6.36262 3.84711 6.52777 3.77904 6.72137 3.77904C6.91141 3.77904 7.07656 3.84711 7.21574 3.9822C7.35602 4.11728 7.42547 4.28007 7.42547 4.4687C7.42547 4.59571 7.39266 4.71276 7.32812 4.8169C7.26359 4.92265 7.1791 5.00714 7.07355 5.06903C6.96773 5.13092 6.85016 5.16187 6.72137 5.16321ZM11.4218 2.53721C10.2903 1.424 8.72676 0.735141 7 0.735141C5.27324 0.735141 3.70973 1.424 2.57824 2.53721C1.44703 3.65095 0.747031 5.18931 0.747031 6.88859C0.747031 8.58786 1.44703 10.1265 2.57824 11.24C3.70973 12.3532 5.27324 13.042 7 13.042C8.72676 13.042 10.2903 12.3532 11.4218 11.24C12.553 10.1265 13.253 8.58786 13.253 6.88859C13.253 5.18931 12.553 3.65095 11.4218 2.53721Z" fill="white"/>
</svg>
