<svg width="11" height="13" viewBox="0 0 11 13" fill="none" xmlns="http://www.w3.org/2000/svg">
<g clip-path="url(#clip0_2_13)">
<path d="M5.0469 0.478877C5.0469 0.414443 5.05868 0.352665 5.07991 0.296003C5.10212 0.236979 5.13433 0.184153 5.17411 0.140279C5.25262 0.053613 5.36128 0 5.48109 0C5.53979 0 5.5959 0.0129852 5.64729 0.0364962C5.64836 0.036988 5.64934 0.0375783 5.65059 0.0381685C5.70269 0.0625649 5.74934 0.0974871 5.78824 0.140377C5.86683 0.226945 5.91545 0.346763 5.91545 0.478975C5.91545 0.481927 5.91528 0.484878 5.91492 0.487731V5.56572H10.5199C10.5225 5.56542 10.5253 5.56513 10.5279 5.56513C10.5864 5.56513 10.6425 5.57811 10.6939 5.60162C10.6952 5.60211 10.6962 5.6027 10.6972 5.60329C10.7493 5.62769 10.796 5.66261 10.8349 5.7055C10.9135 5.79207 10.9623 5.91189 10.9623 6.044C10.9623 6.10834 10.9504 6.17021 10.9292 6.22688C10.907 6.2859 10.8748 6.33873 10.8349 6.3826C10.7952 6.42638 10.7474 6.46189 10.6939 6.48638V6.48648C10.6425 6.5099 10.5864 6.52288 10.5279 6.52288C10.5253 6.52288 10.5225 6.52268 10.5199 6.52229L5.91492 6.52239V11.6003C5.91528 11.6031 5.91545 11.6062 5.91545 11.6091C5.91545 11.6737 5.90359 11.7356 5.88236 11.7922C5.88182 11.7936 5.88129 11.7947 5.88075 11.7958C5.85863 11.8533 5.82705 11.9047 5.78824 11.9476C5.70947 12.0344 5.6009 12.088 5.48109 12.088C5.42274 12.088 5.36663 12.075 5.31525 12.0515C5.26172 12.0271 5.21381 11.9916 5.17403 11.9476C5.13433 11.904 5.10212 11.8512 5.07991 11.7922C5.05859 11.7356 5.04672 11.6737 5.04672 11.6091C5.04672 11.6062 5.0469 11.6031 5.04726 11.6003V6.52239H0.442305C0.439718 6.52278 0.437042 6.52298 0.434276 6.52298C0.375933 6.52298 0.319819 6.50999 0.268434 6.48648C0.214908 6.46209 0.167002 6.42657 0.127214 6.3826C0.0875154 6.33883 0.0553105 6.2862 0.0330971 6.22717C0.0117758 6.17051 0 6.10863 0 6.044C0 5.97957 0.0117758 5.91779 0.0330971 5.86113C0.0553105 5.80211 0.0875154 5.74928 0.127303 5.70541C0.205898 5.61874 0.314467 5.56513 0.434366 5.56513C0.437131 5.56513 0.439807 5.56532 0.442394 5.56572H5.04744V0.487731C5.04708 0.484779 5.0469 0.481828 5.0469 0.478877Z" fill="#535353"/>
</g>
<defs>
<clipPath id="clip0_2_13">
<rect width="10.9623" height="12.088" fill="white"/>
</clipPath>
</defs>
</svg>
