<svg width="20" height="20" viewBox="0 0 20 20" fill="none" xmlns="http://www.w3.org/2000/svg">
<path fill-rule="evenodd" clip-rule="evenodd" d="M9.16662 1.66667C8.70637 1.66667 8.33329 2.03977 8.33329 2.5V3.33333H11.6666V2.5C11.6666 2.03977 11.2935 1.66667 10.8333 1.66667H9.16662ZM13.3333 3.33333V2.5C13.3333 1.11929 12.214 0 10.8333 0H9.16662C7.78592 0 6.66663 1.11929 6.66663 2.5V3.33333H2.49996C2.03973 3.33333 1.66663 3.70643 1.66663 4.16667C1.66663 4.6269 2.03973 5 2.49996 5H2.58743L4.00698 17.7761C4.14767 19.0422 5.21783 20 6.4917 20H13.5082C14.7821 20 15.8523 19.0422 15.993 17.7761L17.4125 5H17.5C17.9602 5 18.3333 4.6269 18.3333 4.16667C18.3333 3.70643 17.9602 3.33333 17.5 3.33333H13.3333ZM15.7355 5H4.26434L5.66346 17.592C5.71035 18.0141 6.06708 18.3333 6.4917 18.3333H13.5082C13.9329 18.3333 14.2895 18.0141 14.3365 17.592L15.7355 5ZM8.33329 7.5C8.79354 7.5 9.16662 7.87309 9.16662 8.33333V15C9.16662 15.4602 8.79354 15.8333 8.33329 15.8333C7.87306 15.8333 7.49996 15.4602 7.49996 15V8.33333C7.49996 7.87309 7.87306 7.5 8.33329 7.5ZM11.6666 7.5C12.1269 7.5 12.5 7.87309 12.5 8.33333V15C12.5 15.4602 12.1269 15.8333 11.6666 15.8333C11.2064 15.8333 10.8333 15.4602 10.8333 15V8.33333C10.8333 7.87309 11.2064 7.5 11.6666 7.5Z" fill="#4A4A4A"/>
</svg>
