<svg width="20" height="19" viewBox="0 0 20 19" fill="none" xmlns="http://www.w3.org/2000/svg">
<path d="M20 9.53484C20 4.26876 15.523 0 10 0C4.47701 0 0 4.26876 0 9.53484C0 14.0067 3.22868 17.7584 7.58428 18.7891V12.4485H5.5222V9.53484H7.58428V8.27939C7.58428 5.0338 9.12456 3.52958 12.466 3.52958C13.0998 3.52958 14.1929 3.64834 14.6401 3.76673V6.40801C14.4039 6.38441 13.9941 6.37242 13.4849 6.37242C11.8452 6.37242 11.2114 6.96474 11.2114 8.50455V9.53484H14.4778L13.9167 12.4485H11.2114V19C16.1631 18.4298 20 14.4098 20 9.53484Z" fill="#676767"/>
</svg>
