<svg width="53" height="44" viewBox="0 0 53 44" fill="none" xmlns="http://www.w3.org/2000/svg">
<path d="M12.0867 42.1163C31.9258 47.3856 48.8424 37.9003 52.808 5.18202C42.2353 8.08159 29.8496 7.73517 20.7109 13.6545C22.5381 18.446 23.588 23.3563 22.0278 28.5827C29.9043 24.0189 37.9533 20.2202 43.8501 14.7562C33.4714 29.4009 26.2024 33.579 15.5542 38.8951C14.4466 40.0327 13.287 41.1122 12.0808 42.1284L12.0867 42.1163ZM5.93202 41.5483C-1.54786 21.4655 -1.54786 21.4655 12.5684 0.79163C16.7235 13.5416 29.0655 25.5801 9.80315 41.112C9.40915 41.4418 8.99892 41.7476 8.57498 42.0276C11.427 31.6398 7.98326 21.1045 9.78476 12.1437C3.9149 25.5973 5.47549 30.855 6.53203 41.8354C6.32622 41.7518 6.13203 41.644 5.93977 41.5322L5.93202 41.5483Z" fill="#3A3A3A"/>
</svg>
