<svg width="86" height="86" viewBox="0 0 86 86" fill="none" xmlns="http://www.w3.org/2000/svg">
<path fill-rule="evenodd" clip-rule="evenodd" d="M43 75.25C47.2351 75.25 51.4288 74.4158 55.3415 72.7951C59.2543 71.1744 62.8095 68.7989 65.8042 65.8042C68.7989 62.8095 71.1744 59.2543 72.7951 55.3415C74.4158 51.4288 75.25 47.2351 75.25 43C75.25 38.7649 74.4158 34.5712 72.7951 30.6585C71.1744 26.7457 68.7989 23.1905 65.8042 20.1958C62.8095 17.2011 59.2543 14.8256 55.3415 13.2049C51.4288 11.5842 47.2351 10.75 43 10.75C34.4468 10.75 26.2439 14.1478 20.1958 20.1958C14.1478 26.2439 10.75 34.4468 10.75 43C10.75 51.5532 14.1478 59.7561 20.1958 65.8042C26.2439 71.8522 34.4468 75.25 43 75.25ZM38.6391 28.6308L58.8634 39.8682C59.4218 40.1786 59.887 40.6326 60.2108 41.1833C60.5347 41.7339 60.7055 42.3612 60.7055 43C60.7055 43.6388 60.5347 44.2661 60.2108 44.8167C59.887 45.3674 59.4218 45.8214 58.8634 46.1318L38.6391 57.3692C37.9842 57.7332 37.2456 57.9197 36.4965 57.9104C35.7473 57.9011 35.0136 57.6962 34.368 57.316C33.7224 56.9358 33.1874 56.3935 32.8158 55.7429C32.4443 55.0923 32.2493 54.3559 32.25 53.6067V32.3933C32.2493 31.6441 32.4443 30.9077 32.8158 30.2571C33.1874 29.6065 33.7224 29.0642 34.368 28.684C35.0136 28.3038 35.7473 28.0989 36.4965 28.0896C37.2456 28.0803 37.9842 28.2668 38.6391 28.6308Z" fill="white"/>
</svg>
