<svg width="14" height="14" viewBox="0 0 14 14" fill="none" xmlns="http://www.w3.org/2000/svg">
<g clip-path="url(#clip0_1_742)">
<path fill-rule="evenodd" clip-rule="evenodd" d="M2.58776 1.43555H13.2567C13.9543 1.43555 13.9165 1.71696 13.8559 2.43473L13.4591 7.47396C13.3917 8.27718 13.4488 8.08236 12.5946 8.20426L4.74786 9.19889L5.16295 10.3986C8.56718 10.3986 10.2127 10.3986 13.6146 10.3986C13.729 10.8247 13.8845 11.5186 13.9989 11.9937H12.5946L12.4597 11.5083C9.62379 11.5083 8.54317 11.5083 5.70612 11.5083C4.15666 11.4821 4.31218 11.9002 3.94054 10.5661L1.27844 0.923991H0V0H2.24242C2.34648 0.388509 2.49057 1.04248 2.58776 1.43555ZM7.26015 2.70703H9.29102V4.76009H11.1184L8.27787 7.51383L5.43282 4.76009H7.26015V2.70703ZM6.13951 11.8398C6.73756 11.8398 7.22356 12.3241 7.22356 12.9199C7.22356 13.5169 6.73871 14 6.13951 14C5.54031 14 5.05546 13.5169 5.05546 12.9199C5.05546 12.3241 5.54031 11.8398 6.13951 11.8398ZM10.6106 11.8398C11.2087 11.8398 11.6947 12.3241 11.6947 12.9199C11.6947 13.5169 11.2087 14 10.6106 14C10.0114 14 9.52659 13.5169 9.52659 12.9199C9.52659 12.3241 10.0114 11.8398 10.6106 11.8398Z" fill="white"/>
</g>
<defs>
<clipPath id="clip0_1_742">
<rect width="14" height="14" fill="white"/>
</clipPath>
</defs>
</svg>
