<svg width="14" height="14" viewBox="0 0 14 14" fill="none" xmlns="http://www.w3.org/2000/svg">
<g clip-path="url(#clip0_1_737)">
<path d="M9.08095 13.83C8.94423 13.9709 8.73436 13.9576 8.61211 13.7999C8.48986 13.6422 8.50148 13.4001 8.6382 13.2591L13.1308 8.63282L13.1322 8.6315C13.197 8.5654 13.2455 8.49404 13.2781 8.4173C13.3101 8.34186 13.3286 8.25579 13.3336 8.15933C13.3386 8.06313 13.3289 7.97482 13.3046 7.8944C13.2803 7.81489 13.2394 7.73775 13.1819 7.66297L13.1764 7.65575L8.07731 1.25756C7.95289 1.10157 7.96167 0.858717 8.09691 0.715343C8.23214 0.57197 8.44258 0.581957 8.56699 0.737947L13.6664 7.13692C13.6707 7.14205 13.675 7.14717 13.6792 7.15256C13.7936 7.30066 13.8779 7.46401 13.9321 7.64234C13.9861 7.82001 14.0079 8.00728 13.9976 8.2044C13.9874 8.40113 13.9466 8.58419 13.8745 8.75398C13.8028 8.92258 13.7022 9.07292 13.5722 9.20539L13.5721 9.20526L9.08095 13.83ZM6.19604 0.411512H6.28013V0.412301C6.3699 0.412301 6.45946 0.453959 6.52497 0.536094L11.6244 6.9352C11.6287 6.94033 11.6329 6.94545 11.637 6.95084C11.7515 7.09907 11.8359 7.26229 11.8901 7.44062C11.9441 7.61829 11.9658 7.80556 11.9556 8.00281C11.9452 8.19941 11.9044 8.3826 11.8323 8.55226C11.7608 8.72086 11.6602 8.8712 11.5301 9.00367L7.0535 13.6132C7.05054 13.6168 7.04724 13.6204 7.04405 13.6239C6.91724 13.7596 6.77676 13.8588 6.62272 13.9217C6.47005 13.984 6.30667 14.0093 6.13258 13.9973C5.95826 13.9853 5.79807 13.938 5.6519 13.8559C5.50527 13.7734 5.37447 13.6573 5.25917 13.508L0.464519 7.30526L0.464633 7.30513C0.407096 7.23062 0.374625 7.13035 0.381233 7.02299L0.391032 6.86778L0.000696434 0.409278C-0.000215032 0.392983 -0.000328965 0.376425 0.000696434 0.359735C0.0122037 0.148289 0.170115 -0.0125628 0.353548 0.000841544L6.08986 0.423208C6.09704 0.421894 6.10433 0.42058 6.11173 0.419529C6.14489 0.414141 6.17314 0.411512 6.19604 0.411512ZM6.14352 1.19172C6.1213 1.19422 6.0992 1.19409 6.07755 1.19146L0.691132 0.794718L1.05663 6.84334C1.05765 6.86108 1.05765 6.87869 1.05652 6.89591H1.05663L1.05538 6.91536L5.75637 12.9972C5.81311 13.0707 5.87544 13.1265 5.94345 13.1648C6.01181 13.2032 6.08781 13.2255 6.17143 13.2311C6.25552 13.2369 6.33208 13.2256 6.40112 13.1975C6.4688 13.1699 6.53203 13.1247 6.59059 13.062C6.59732 13.0548 6.60427 13.0481 6.61133 13.0416L11.0884 8.43136L11.0898 8.42991L11.0897 8.42978C11.1545 8.36381 11.2032 8.29245 11.2357 8.21584C11.2678 8.14027 11.2861 8.05433 11.2913 7.95774C11.2963 7.86154 11.2865 7.77323 11.2621 7.69281C11.2378 7.6133 11.197 7.53616 11.1394 7.46138L11.1339 7.45416L6.14352 1.19172ZM2.76494 1.60778C2.93288 1.61304 3.08772 1.6518 3.22956 1.72408C3.37266 1.79702 3.50209 1.90281 3.61762 2.04119L3.6191 2.04316C3.73372 2.18009 3.82031 2.33279 3.87864 2.50114C3.93777 2.67171 3.9674 2.85333 3.9674 3.04585C3.9674 3.06254 3.96648 3.07897 3.96466 3.09513C3.95657 3.27215 3.92251 3.43747 3.86269 3.59083L3.86212 3.59214L3.86269 3.5924C3.79855 3.7568 3.70546 3.90596 3.58401 4.03974C3.57683 4.04763 3.56943 4.05512 3.56179 4.06208C3.44524 4.18338 3.31741 4.2751 3.17864 4.33674C3.03383 4.401 2.88081 4.43136 2.71937 4.42741V4.42873C2.55269 4.42873 2.39603 4.39219 2.24962 4.31939C2.1055 4.2479 1.97402 4.14146 1.85553 4.00084L1.85416 3.99926C1.73704 3.85905 1.64954 3.70411 1.59166 3.53445C1.53424 3.36558 1.50758 3.18449 1.51213 2.99131C1.51658 2.79485 1.55019 2.61376 1.61376 2.44791C1.67802 2.27997 1.77179 2.12858 1.89552 1.99361C2.01606 1.8622 2.14982 1.76364 2.29668 1.69833C2.44354 1.63301 2.59974 1.60266 2.76494 1.60778ZM2.96125 2.42702C2.89631 2.39403 2.82567 2.37616 2.74934 2.3738C2.67175 2.3713 2.60065 2.38457 2.53628 2.41322C2.47157 2.44213 2.40981 2.48852 2.35114 2.55239C2.29417 2.61442 2.25156 2.68275 2.22308 2.7574C2.1938 2.83388 2.17819 2.91798 2.17614 3.00945C2.17397 3.09802 2.18582 3.17989 2.21146 3.25506C2.23698 3.3301 2.27777 3.40093 2.33325 3.46756C2.38851 3.53287 2.44832 3.5815 2.51258 3.6133C2.57445 3.64405 2.64338 3.65943 2.71926 3.65943V3.66087L2.72712 3.661C2.8055 3.6635 2.87694 3.65023 2.94154 3.62158C3.0017 3.5949 3.05912 3.55351 3.11381 3.49765C3.11757 3.49292 3.12156 3.48846 3.12566 3.48399C3.18331 3.42051 3.22683 3.35139 3.25588 3.27688L3.25634 3.27714C3.28186 3.21117 3.29678 3.13955 3.301 3.06215C3.30077 3.05676 3.30066 3.05124 3.30066 3.04572C3.30066 2.94847 3.28756 2.862 3.26135 2.78644C3.23503 2.71035 3.19459 2.63991 3.14024 2.57526L3.13819 2.57289C3.08441 2.50836 3.0254 2.45974 2.96125 2.42702ZM5.97262 4.12122C5.84821 3.96523 5.85698 3.72237 5.9921 3.579C6.12734 3.4355 6.33778 3.44561 6.46219 3.6016L9.30266 7.15506C9.42708 7.31105 9.4183 7.55377 9.28306 7.69727C9.14783 7.84078 8.93739 7.83079 8.81297 7.67467L5.97262 4.12122ZM4.61317 5.60633C4.48875 5.45035 4.49753 5.20762 4.63265 5.06412C4.76789 4.92061 4.97832 4.9306 5.10274 5.08659L7.94321 8.64004C8.06762 8.79603 8.05885 9.03876 7.92361 9.18226C7.78826 9.32576 7.57783 9.31578 7.45341 9.15979L4.61317 5.60633ZM3.19857 7.09145C3.07416 6.93546 3.08293 6.69261 3.21806 6.54923C3.3533 6.40573 3.56384 6.41585 3.68814 6.57171L6.52861 10.1252C6.65303 10.2813 6.64437 10.5239 6.50913 10.6674C6.37389 10.8109 6.16346 10.8009 6.03904 10.6449L3.19857 7.09145Z" fill="white"/>
</g>
<defs>
<clipPath id="clip0_1_737">
<rect width="14" height="14" fill="white"/>
</clipPath>
</defs>
</svg>
