<svg width="14" height="15" viewBox="0 0 14 15" fill="none" xmlns="http://www.w3.org/2000/svg">
<g clip-path="url(#clip0_1_753)">
<path d="M3.85358 6.53568C4.32492 7.38782 4.86735 8.20789 5.571 8.95549C6.27783 9.70663 7.15306 10.3911 8.29113 10.9714L8.29227 10.972L8.2925 10.9714C8.37544 11.0139 8.4544 11.0129 8.52857 10.9849C8.63612 10.9445 8.74811 10.8548 8.85703 10.7461C8.94009 10.663 9.04422 10.5258 9.15679 10.377C9.59497 9.79835 10.1367 9.08304 10.9015 9.43892C10.9177 9.44636 10.933 9.45506 10.9473 9.4648L13.4964 10.9364C13.5055 10.9417 13.5142 10.9473 13.5226 10.9532C13.8605 11.1864 13.9985 11.5454 13.9999 11.9475C14.0015 12.3621 13.8485 12.8262 13.6269 13.2186C13.3347 13.7358 12.8992 14.0776 12.4009 14.3092C11.9258 14.53 11.3985 14.6475 10.8894 14.7223C10.0931 14.8397 9.34238 14.7652 8.5779 14.5286C7.83164 14.2976 7.07673 13.912 6.25368 13.3996L6.19375 13.3623C5.81481 13.1264 5.40693 12.8727 5.01011 12.5717C3.54437 11.4599 2.05174 9.85537 1.08389 8.09442C0.269158 6.61206 -0.176659 5.01324 0.0663584 3.48874C0.199545 2.65218 0.558546 1.89279 1.17743 1.38978C1.71997 0.948599 2.4521 0.70963 3.39318 0.794019C3.50404 0.803637 3.59746 0.867187 3.6501 0.956499L3.65078 0.956156L5.28275 3.73516C5.52315 4.04638 5.54981 4.35519 5.41981 4.66218C5.31237 4.91615 5.09032 5.14893 4.79592 5.36843C4.70636 5.44286 4.60132 5.52015 4.49297 5.59985C4.12861 5.8679 3.71185 6.17442 3.85358 6.53568ZM5.08952 9.41327C4.33711 8.61381 3.76392 7.74816 3.26945 6.85332C3.26079 6.83923 3.25304 6.82435 3.24644 6.80866C2.88482 5.95458 3.53355 5.47756 4.10013 5.06111C4.1964 4.99034 4.2896 4.92176 4.37368 4.85168L4.37391 4.85202C4.37881 4.8479 4.38394 4.84389 4.38929 4.84C4.59927 4.68496 4.75057 4.53691 4.80833 4.40065C4.84126 4.3229 4.82907 4.23737 4.75524 4.1413C4.7426 4.12653 4.73097 4.11027 4.72072 4.09287L3.16691 1.44726C2.49824 1.41967 1.97985 1.59852 1.59647 1.91031C1.11351 2.30295 0.830502 2.91325 0.722153 3.5934C0.505112 4.95531 0.91766 6.4095 1.66688 7.77278C2.58722 9.44716 4.01104 10.9762 5.41115 12.038C5.79613 12.33 6.18316 12.5708 6.54273 12.7946L6.60265 12.8319C7.37944 13.3154 8.08571 13.6776 8.77329 13.8904C9.44276 14.0975 10.0988 14.1629 10.7932 14.0605C11.25 13.9933 11.7175 13.8905 12.1226 13.7022C12.5043 13.5247 12.8344 13.2688 13.0493 12.8888C13.2197 12.5869 13.3375 12.2415 13.3365 11.9473C13.3358 11.7607 13.2827 11.6005 13.1536 11.5072L10.6187 10.044C10.3383 9.92018 9.97733 10.3967 9.68521 10.7825C9.55943 10.9488 9.4431 11.1022 9.32564 11.2196C9.15736 11.3874 8.9704 11.5314 8.7603 11.6101C8.51694 11.7016 8.25957 11.7056 7.99069 11.5678L7.99092 11.5673C6.78164 10.9507 5.84751 10.2188 5.08952 9.41327Z" fill="white"/>
</g>
<defs>
<clipPath id="clip0_1_753">
<rect width="14" height="14" fill="white" transform="translate(0 0.777161)"/>
</clipPath>
</defs>
</svg>
