<svg width="11" height="13" viewBox="0 0 11 13" fill="none" xmlns="http://www.w3.org/2000/svg">
<g clip-path="url(#clip0_2_7)">
<path d="M9.76096 6.00057C9.76595 6.00057 9.77092 6 9.77591 6C9.83025 6 9.88235 6.01261 9.93007 6.03543C9.93123 6.03591 9.93214 6.03648 9.93313 6.03705C9.98151 6.06074 10.0248 6.09464 10.061 6.13627C10.1339 6.22031 10.1792 6.33662 10.1792 6.46488C10.1792 6.52733 10.1682 6.5874 10.1485 6.6424C10.128 6.6997 10.0981 6.75098 10.061 6.79357C10.0241 6.83606 9.9798 6.87052 9.93011 6.8943C9.93009 6.89431 9.93007 6.89434 9.93007 6.89437C9.93007 6.8944 9.93005 6.89443 9.93003 6.89444C9.88232 6.91715 9.83023 6.92975 9.77591 6.92975C9.77092 6.92975 9.76595 6.92918 9.76097 6.92918C6.64676 6.92918 3.53248 6.92927 0.418197 6.92927C0.413215 6.92927 0.408239 6.92985 0.403257 6.92985C0.34908 6.92985 0.296975 6.91724 0.24926 6.89442C0.199557 6.87073 0.155073 6.83626 0.118127 6.79357C0.0812727 6.75109 0.0514561 6.70001 0.0308299 6.64273C0.0308215 6.64271 0.0307993 6.64269 0.0307744 6.64269C0.0307496 6.64269 0.0307274 6.64267 0.030719 6.64265C0.0109295 6.58766 0 6.5276 0 6.46497C0 6.40252 0.0109346 6.34245 0.030733 6.28744C0.0513597 6.23015 0.0812643 6.17886 0.11821 6.13627C0.191191 6.05214 0.292005 6.0001 0.403339 6.0001C0.408322 6.0001 0.413298 6.00067 0.41828 6.00067C3.53248 6.00057 6.64676 6.00057 9.76096 6.00057Z" fill="#535353"/>
</g>
<defs>
<clipPath id="clip0_2_7">
<rect width="10.9623" height="12.088" fill="white"/>
</clipPath>
</defs>
</svg>
